<svg xmlns="http://www.w3.org/2000/svg" width="648.38" height="764.58" viewBox="0 0 171.55 202.3"><path d="M45.59 156.07a56.18 56.18 0 0 1-12.4-18.63 56.87 56.87 0 0 1-4.05-19.3L0 100.94l54.53 76.83 7.28-10.29a62.35 62.35 0 0 1-7.28-4.05 69.45 69.45 0 0 1-8.94-7.36zM33.27 95a55.43 55.43 0 0 1 12.4-18.62 54.95 54.95 0 0 1 8.93-7.28c1.05-.68 2.1-1.36 3.16-1.96a56.87 56.87 0 0 1 33.05-7.06L54.6 0 .07 90.5 29.74 108c.6-4.43 1.8-8.79 3.53-13zM166.96 177.4l-32.97-29.37-16.68 16.67 29.37 32.97c5.56 6.01 14.94 6.16 20.73.45a14.49 14.49 0 0 0-.45-20.72z" fill="#242429"/><path d="M126.7 141.65a40.4 40.4 0 0 0 3.6-7.21 49.01 49.01 0 0 0 0-36.5c-2.4-6.01-6-11.42-10.66-16a48.57 48.57 0 0 0-16-10.67 49.01 49.01 0 0 0-36.5 0c-6 2.4-11.41 6.01-16 10.67a48.57 48.57 0 0 0-10.66 16 49.01 49.01 0 0 0 0 36.5c2.4 6 6 11.41 10.67 16a48.57 48.57 0 0 0 16 10.66 49.01 49.01 0 0 0 36.5 0 64.55 64.55 0 0 0 7.2-3.6l3.23 3.6 16.23-16.22zm-77.66-10.67a37.8 37.8 0 0 1-2.7-11.41l9.31 5.48 59.1-34.93c3.01 3.38 5.34 7.14 7.07 11.27.15.38.3.68.37 1.05l-66.54 39.28a38.33 38.33 0 0 1-6.6-10.74zm64.14 13a38.59 38.59 0 0 1-13 8.63l-1.27.45 25.76-36.27a39.87 39.87 0 0 1-2.85 14.2 38.59 38.59 0 0 1-8.64 12.98z" fill="#242429"/></svg>
