<svg xmlns="http://www.w3.org/2000/svg" viewBox="0 0 1200 1200"><path fill="#2C2C2C" d="M600 1150c-303.268 0-549.997-246.73-549.997-550.003C50.003 296.73 296.732 50 600 50s549.997 246.73 549.997 549.997C1149.997 903.27 903.268 1150 600 1150zm0-1024.169c-261.455 0-474.167 212.711-474.167 474.167 0 261.461 212.711 474.172 474.167 474.172s474.167-212.711 474.167-474.172c0-261.456-212.712-474.167-474.167-474.167z"/><path fill="#2C2C2C" d="M653.615 599.997L840.122 413.49c14.811-14.805 14.811-38.81 0-53.615-14.799-14.811-38.816-14.811-53.615 0L600 546.382 413.493 359.875c-14.799-14.811-38.816-14.811-53.615 0-14.811 14.805-14.811 38.81 0 53.615l186.507 186.507-186.507 186.507c-14.811 14.805-14.811 38.81 0 53.615 7.4 7.405 17.107 11.108 26.808 11.108 9.7 0 19.407-3.703 26.807-11.108L600 653.612l186.507 186.507c7.4 7.405 17.107 11.108 26.808 11.108 9.7 0 19.408-3.703 26.807-11.108 14.811-14.805 14.811-38.81 0-53.615L653.615 599.997z"/></svg>
