<svg xmlns="http://www.w3.org/2000/svg" viewBox="0 0 612 612"><path d="M104.914 306c0-14.478-11.75-26.229-26.229-26.229H26.229C11.75 279.771 0 291.522 0 306c0 14.479 11.75 26.229 26.229 26.229h52.457c14.478 0 26.228-11.75 26.228-26.229zm26.229 148.629c-7.239 0-13.796 2.938-18.553 7.676l-34.971 34.972c-4.739 4.756-7.676 11.313-7.676 18.552 0 14.479 11.733 26.229 26.229 26.229 7.239 0 13.796-2.938 18.535-7.693l34.972-34.972c4.756-4.738 7.694-11.295 7.694-18.534-.001-14.48-11.734-26.23-26.23-26.23zM306 104.914c14.496 0 26.229-11.75 26.229-26.229V26.229C332.229 11.75 320.496 0 306 0c-14.496 0-26.229 11.75-26.229 26.229v52.457c0 14.478 11.733 26.228 26.229 26.228zm174.857 52.458c7.239 0 13.796-2.938 18.534-7.676l34.972-34.972c4.756-4.756 7.693-11.313 7.693-18.552 0-14.478-11.732-26.229-26.229-26.229-7.238 0-13.796 2.938-18.552 7.694l-34.972 34.971c-4.738 4.739-7.676 11.296-7.676 18.535.002 14.478 11.734 26.229 26.23 26.229zm-368.267-7.677c4.756 4.738 11.313 7.676 18.553 7.676 14.478 0 26.229-11.75 26.229-26.229 0-7.239-2.938-13.796-7.676-18.552l-34.972-34.971c-4.756-4.739-11.313-7.676-18.552-7.676-14.478 0-26.229 11.75-26.229 26.229 0 7.239 2.938 13.796 7.676 18.535l34.971 34.988zm473.181 130.076h-52.457c-14.479 0-26.229 11.75-26.229 26.229s11.75 26.229 26.229 26.229h52.457C600.25 332.229 612 320.479 612 306c0-14.478-11.75-26.229-26.229-26.229zm-86.362 182.534c-4.756-4.738-11.312-7.676-18.552-7.676-14.479 0-26.229 11.75-26.229 26.229 0 7.239 2.938 13.796 7.676 18.534l34.972 34.972c4.756 4.756 11.313 7.693 18.552 7.693 14.479 0 26.229-11.75 26.229-26.229 0-7.238-2.938-13.796-7.676-18.552l-34.972-34.971zM306 507.086c-14.496 0-26.229 11.75-26.229 26.229v52.457C279.771 600.25 291.504 612 306 612c14.496 0 26.229-11.75 26.229-26.229v-52.457c0-14.478-11.733-26.228-26.229-26.228zm0-384.686c-101.242 0-183.6 82.358-183.6 183.6S204.758 489.6 306 489.6 489.6 407.242 489.6 306 407.242 122.4 306 122.4zm0 314.743c-72.321 0-131.143-58.821-131.143-131.143 0-72.321 58.822-131.143 131.143-131.143S437.143 233.679 437.143 306 378.321 437.143 306 437.143z"/></svg>
