<svg xmlns="http://www.w3.org/2000/svg" width="156" height="258"><path d="M78.126 0C47.032 0 21.869 28.643 21.869 64.036v24C10.95 90.286 0 93.286 0 97.179v125.25s0 3.464 3.42 5.107c12.393 5.714 61.151 25.357 72.352 29.857C77.216 258 77.623 258 78 258c.533 0 .784 0 2.228-.607 11.2-4.5 60.084-24.143 72.478-29.857 3.168-1.5 3.294-4.965 3.294-4.965V97.18c0-3.893-10.793-7.036-21.743-9.143v-24C134.414 28.643 109.093 0 78.126 0zm0 30.607c18.323 0 29.399 12.607 29.399 33.464V84.93c-20.552-1.643-38.09-1.643-58.767 0V64.07c0-20.892 11.075-33.464 29.368-33.464zM78 115.643c25.571 0 47.032 2.25 47.032 6.286v78.142c0 1.215-.125 1.358-1.067 1.786-.91.464-43.612 18-43.612 18s-1.725.607-2.227.607c-.534 0-2.228-.75-2.228-.75s-42.703-17.535-43.612-18c-.91-.464-1.067-.607-1.067-1.785v-78.143c-.251-4.036 21.21-6.143 46.781-6.143z"/></svg>