<svg xmlns="http://www.w3.org/2000/svg" xmlns:xlink="http://www.w3.org/1999/xlink" viewBox="0 0 228.36246 327.29304"><defs><circle id="a" cx="141.26801" cy="161.733" r="53.858002"/></defs><path fill="#242429" d="M72.596207 217.36932v19.106l9.732-13.711a74.281 74.281 0 0 1-9.732-5.395z"/><path fill="#8c8c8c" d="M60.689207 207.67232c-7.153-7.152-12.695-15.501-16.471-24.815-3.336-8.224-5.148-16.874-5.435-25.742l-38.78200001-22.913 72.59500001 102.273v-19.106a75.143 75.143 0 0 1-11.907-9.696z"/><path fill="#0d0e11" d="M76.829207 89.357319l-6.034-3.712 1.8 6.277a74.124 74.124 0 0 1 4.233-2.565z"/><path fill="#333" d="M85.505207 85.145319a74.73 74.73 0 0 1 28.212003-5.492c2.378 0 4.742.114 7.087.334L72.596207-.0006809l-1.282 86.8459999 5.514 2.512a74.741 74.741 0 0 1 8.677-4.212z"/><g transform="translate(-27.550793 -7.0876809)"><clipPath id="b"><use width="100%" height="100%" xlink:href="#a"/></clipPath><path fill="#141414" d="M101.763 173.513l117.141-69.208L95.8 51.535z" clip-path="url(#b)"/><path fill="#383838" d="M101.762 173.513l-117.141-69.208 117.141-53.276z" clip-path="url(#b)"/><path fill="#141414" d="M101.762 291.53L218.904 126.5l-117.142 69.207z" clip-path="url(#b)"/></g><path fill="#242429" d="M178.25921 197.03232l-22.156 22.156 39.113 43.945c7.356 7.982 19.876 8.238 27.552.563 7.675-7.676 7.42-20.196-.563-27.552zm-40.272-102.167001a64.28 64.28 0 0 0-24.27-4.724 64.28 64.28 0 0 0-24.270003 4.724c-8.005 3.246-15.186 8.013001-21.341 14.169001-6.156 6.155-10.923 13.336-14.17 21.341a64.28 64.28 0 0 0-4.723 24.27c0 8.376 1.59 16.541 4.724 24.27 3.246 8.006 8.013 15.187 14.169 21.342 6.155 6.156 13.336 10.923 21.341 14.17a64.281 64.281 0 0 0 24.270003 4.723 64.28 64.28 0 0 0 24.27-4.724 64.087 64.087 0 0 0 9.567-4.844l4.305 4.837 21.632-21.632-4.837-4.305a64.09 64.09 0 0 0 4.844-9.567 64.281 64.281 0 0 0 4.724-24.27 64.28 64.28 0 0 0-4.724-24.27c-3.246-8.005-8.013-15.186-14.169-21.341-6.156-6.156-13.336-10.923001-21.342-14.170001zm24.166 40.111001a52.095 52.095 0 0 1 3.826 19.67c0 6.79-1.287 13.408-3.826 19.669-2.628 6.479-6.49 12.294-11.481 17.285-4.99 4.99-10.806 8.853-17.285 11.48a52.096 52.096 0 0 1-19.67 3.827 52.096 52.096 0 0 1-19.669003-3.826c-6.479-2.628-12.294-6.49-17.285-11.481-4.99-4.99-8.854-10.806-11.48-17.285a52.097 52.097 0 0 1-3.827-19.67c0-6.79 1.287-13.408 3.826-19.669 2.627-6.479 6.49-12.294 11.48-17.285 4.992-4.99 10.807-8.853 17.286-11.48a52.094 52.094 0 0 1 19.670003-3.827c6.79 0 13.407 1.287 19.669 3.826 6.478 2.628 12.294 6.49 17.285 11.481 4.99 4.99 8.853 10.806 11.48 17.285z"/><path fill="#8c8c8c" d="M72.591207 88.109319l.005-88.1099999L.00120699 120.44932z"/><path fill="#383838" d="M44.217207 126.43432c3.777-9.314 9.32-17.664 16.473-24.816a75.18 75.18 0 0 1 11.906-9.696001v-4.49L.00120699 120.44832l39.50500001 23.34a74.676 74.676 0 0 1 4.71-17.354z"/><path fill="none" stroke="#333" stroke-miterlimit="10" stroke-width=".001" d="M72.596207 217.36932v19.106"/><path fill="none" stroke="#242429" stroke-miterlimit="10" stroke-width=".001" d="M74.194207 103.65632l.017 14.385"/><path fill="none" stroke="#27272b" stroke-miterlimit="10" stroke-width=".001" d="M72.596207 87.432319v4.49"/><path fill="none" stroke="#242429" stroke-miterlimit="10" stroke-width=".001" d="M76.829207 89.357319l-4.233-1.925V-.0006809m0 87.4329999l-72.596 33.016001"/><path d="M9.8356103 287.00367v17.85016H29.185779v2.55002H9.8356103v19.50017H6.7455834v-42.45037H32.185805v2.55002zM42.208706 297.05376v29.85026h-2.850025v-29.85026zm1.23001-10.29009q0 .54001-.240002 1.02001-.210002.45001-.570005.81001-.360003.36-.840007.57-.480004.21001-1.020009.21001t-1.020009-.21001q-.480004-.21-.840007-.57-.360003-.36-.570005-.81001-.210002-.48-.210002-1.02001 0-.54.210002-1.02001.210002-.51.570005-.87.360003-.36001.840007-.57001.480004-.21 1.020009-.21t1.020009.21q.480004.21.840007.57001.360003.36.570005.87.240002.48001.240002 1.02001zM55.118195 302.27381q2.070018-2.58002 4.770041-4.14004 2.730024-1.56001 6.060053-1.56001 2.460022 0 4.320038.78 1.890016.78001 3.120027 2.25002 1.230011 1.47002 1.860016 3.54004.630006 2.07001.630006 4.68004v19.08016h-2.880025v-19.08016q0-4.20004-1.920017-6.57006-1.920017-2.40002-5.850051-2.40002-2.910025 0-5.460048 1.50001-2.520022 1.47001-4.500039 4.11004v22.44019h-2.880025v-29.85026h1.590014q.750007 0 .870008.75001zM105.80551 303.47382q-1.71002-2.58002-3.81004-3.63003-2.070015-1.05001-4.740039-1.05001-2.640023 0-4.62004.96001-1.980017.96-3.330029 2.73002-1.320011 1.74001-2.010017 4.20004-.660006 2.43002-.660006 5.37004 0 6.66006 2.430021 9.81009 2.460021 3.12003 7.080062 3.12003 2.940025 0 5.370048-1.53002 2.43002-1.53001 4.29004-4.29004zm2.85002-20.22018v43.65038h-1.56001q-.78001 0-.90001-.78l-.3-4.71005q-1.98002 2.70003-4.62004 4.29004-2.640027 1.59002-5.940055 1.59002-5.520048 0-8.580075-3.81004-3.060027-3.81003-3.060027-11.4301 0-3.27003.840008-6.09005.870007-2.85002 2.520022-4.92004 1.650014-2.10002 4.050035-3.30003 2.430021-1.20001 5.580048-1.20001 3.030027 0 5.250044 1.11001 2.22002 1.11001 3.87004 3.30003v-17.70016zM144.86397 324.354l-.06 2.55002h-25.44022v-42.45037h25.44022v2.55002h-22.3502v17.16015h18.60017v2.49003h-18.60017V324.354zM181.76898 287.06368h-14.91013v39.84034h-3.09003v-39.84034h-15.00013v-2.61003h33.00029zM221.61683 284.45365v42.45037h-3.09003v-20.34017h-26.58023v20.34017h-3.09002v-42.45037h3.09002v19.80017h26.58023v-19.80017z"/></svg>
