<svg xmlns="http://www.w3.org/2000/svg" xmlns:xlink="http://www.w3.org/1999/xlink" width="45.672" height="53.858" viewBox="0 0 228.362 269.291"><defs><circle r="53.858" cy="161.733" cx="141.268" id="a"/></defs><path d="M72.596 217.37v19.106l9.732-13.711a74.281 74.281 0 0 1-9.732-5.395z" class="st1" fill="#242429"/><path d="M60.689 207.673c-7.153-7.152-12.695-15.501-16.471-24.815-3.336-8.224-5.148-16.874-5.435-25.742L.001 134.203l72.595 102.273V217.37a75.143 75.143 0 0 1-11.907-9.696z" fill="#8c8c8c"/><path d="M76.829 89.358l-6.034-3.712 1.8 6.277a74.124 74.124 0 0 1 4.233-2.565z" fill="#0d0e11"/><path d="M85.505 85.146a74.73 74.73 0 0 1 28.212-5.492c2.378 0 4.742.114 7.087.334L72.596 0l-1.282 86.846 5.514 2.512a74.741 74.741 0 0 1 8.677-4.212z" class="st1" fill="#333"/><g transform="translate(-27.551 -7.087)"><clipPath id="b"><use xlink:href="#a" width="100%" height="100%"/></clipPath><path clip-path="url(#b)" d="M101.763 173.513l117.141-69.208L95.8 51.535z" fill="#141414"/><path clip-path="url(#b)" d="M101.762 173.513l-117.141-69.208 117.141-53.276z" fill="#383838"/><path clip-path="url(#b)" d="M101.762 291.53L218.904 126.5l-117.142 69.207z" fill="#141414"/></g><path d="M178.259 197.033l-22.156 22.156 39.113 43.945c7.356 7.982 19.876 8.238 27.552.563 7.675-7.676 7.42-20.196-.563-27.552zM137.987 94.866a64.28 64.28 0 0 0-24.27-4.724 64.28 64.28 0 0 0-24.27 4.724c-8.005 3.246-15.186 8.013-21.341 14.169-6.156 6.155-10.923 13.336-14.17 21.341a64.28 64.28 0 0 0-4.723 24.27c0 8.376 1.59 16.541 4.724 24.27 3.246 8.006 8.013 15.187 14.169 21.342 6.155 6.156 13.336 10.923 21.341 14.17a64.281 64.281 0 0 0 24.27 4.723 64.28 64.28 0 0 0 24.27-4.724 64.087 64.087 0 0 0 9.567-4.844l4.305 4.837 21.632-21.632-4.837-4.305a64.09 64.09 0 0 0 4.844-9.567 64.281 64.281 0 0 0 4.724-24.27 64.28 64.28 0 0 0-4.724-24.27c-3.246-8.005-8.013-15.186-14.169-21.341-6.156-6.156-13.336-10.923-21.342-14.17zm24.166 40.111a52.095 52.095 0 0 1 3.826 19.67c0 6.79-1.287 13.408-3.826 19.669-2.628 6.479-6.49 12.294-11.481 17.285-4.99 4.99-10.806 8.853-17.285 11.48a52.096 52.096 0 0 1-19.67 3.827 52.096 52.096 0 0 1-19.669-3.826c-6.479-2.628-12.294-6.49-17.285-11.481-4.99-4.99-8.854-10.806-11.48-17.285a52.097 52.097 0 0 1-3.827-19.67c0-6.79 1.287-13.408 3.826-19.669 2.627-6.479 6.49-12.294 11.48-17.285 4.992-4.99 10.807-8.853 17.286-11.48a52.094 52.094 0 0 1 19.67-3.827c6.79 0 13.407 1.287 19.669 3.826 6.478 2.628 12.294 6.49 17.285 11.481 4.99 4.99 8.853 10.806 11.48 17.285z" class="st1" fill="#242429"/><path d="M72.591 88.11L72.596 0 .001 120.45z" fill="#8c8c8c"/><path d="M44.217 126.435c3.777-9.314 9.32-17.664 16.473-24.816a75.18 75.18 0 0 1 11.906-9.696v-4.49L.001 120.449l39.505 23.34a74.676 74.676 0 0 1 4.71-17.354z" fill="#383838"/><path class="st7" d="M72.596 217.37v19.106" fill="none" stroke="#333" stroke-width=".001" stroke-miterlimit="10"/><path class="st7" d="M74.194 103.657l.017 14.385" fill="none" stroke="#242429" stroke-width=".001" stroke-miterlimit="10"/><path d="M72.596 87.433v4.49" fill="none" stroke="#27272b" stroke-width=".001" stroke-miterlimit="10"/><path class="st7" d="M76.829 89.358l-4.233-1.925V0M72.596 87.433L0 120.449" fill="none" stroke="#242429" stroke-width=".001" stroke-miterlimit="10"/></svg>
